<svg xmlns="http://www.w3.org/2000/svg" xmlns:xlink="http://www.w3.org/1999/xlink" width="500" zoomAndPan="magnify" viewBox="0 0 375 374.999991" height="500" preserveAspectRatio="xMidYMid meet" version="1.0"><defs><g/><clipPath id="51e03e008b"><path d="M 135.449219 110 L 182 110 L 182 211.417969 L 135.449219 211.417969 Z M 135.449219 110 " clip-rule="nonzero"/></clipPath><clipPath id="ec4df3e3ad"><path d="M 162 86.238281 L 239.699219 86.238281 L 239.699219 211.417969 L 162 211.417969 Z M 162 86.238281 " clip-rule="nonzero"/></clipPath></defs><rect x="-37.5" width="450" fill="#ffffff" y="-37.499999" height="449.999989" fill-opacity="1"/><g clip-path="url(#51e03e008b)"><path fill="#ff9500" d="M 181.664062 110.738281 C 155.765625 112.96875 135.449219 134.632812 135.449219 161.039062 C 135.449219 187.445312 155.765625 209.109375 181.664062 211.355469 L 181.664062 202.78125 C 172.617188 201.839844 164.429688 198.039062 158.019531 192.304688 L 163.535156 186.785156 C 164.429688 185.894531 164.429688 184.421875 163.535156 183.53125 C 162.644531 182.636719 161.167969 182.636719 160.273438 183.53125 L 154.738281 189.050781 C 148.539062 182.140625 144.59375 173.199219 144.066406 163.351562 L 151.886719 163.351562 C 153.164062 163.351562 154.207031 162.3125 154.207031 161.039062 C 154.207031 159.765625 153.164062 158.742188 151.886719 158.742188 L 144.066406 158.742188 C 144.59375 148.894531 148.539062 139.9375 154.738281 133.046875 L 160.273438 138.566406 C 161.167969 139.457031 162.644531 139.457031 163.535156 138.566406 C 164.429688 137.65625 164.429688 136.203125 163.535156 135.296875 L 158.019531 129.792969 C 164.429688 124.058594 172.617188 120.257812 181.664062 119.316406 Z M 181.664062 110.738281 " fill-opacity="1" fill-rule="evenodd"/></g><g clip-path="url(#ec4df3e3ad)"><path fill="#005959" d="M 239.710938 96.195312 L 228.210938 96.195312 L 228.210938 107.664062 L 239.710938 107.664062 Z M 185.925781 164.59375 L 162.542969 161.304688 L 185.925781 158.015625 L 185.925781 110.375 L 197.226562 110.375 C 199.0625 110.375 200.820312 110.820312 202.359375 111.617188 L 202.359375 115.546875 L 206.703125 115.546875 C 208.578125 115.613281 214.210938 115.28125 218.734375 121.726562 L 214.410156 121.726562 L 214.410156 135.410156 L 225.113281 135.410156 C 230.78125 137.128906 234.921875 142.402344 234.921875 148.628906 C 234.921875 151.355469 234.125 153.882812 232.765625 156.03125 C 235.484375 159.207031 237.140625 163.335938 237.140625 167.863281 C 237.140625 175.695312 232.171875 182.390625 225.195312 184.949219 C 225.542969 186.121094 225.742188 187.378906 225.742188 188.683594 C 225.742188 195.839844 219.925781 201.65625 212.734375 201.65625 C 211.246094 201.65625 209.820312 201.390625 208.476562 200.929688 C 208.0625 206.761719 203.15625 211.40625 197.226562 211.40625 L 185.925781 211.40625 Z M 197.226562 110.375 Z M 223.6875 105.351562 L 216.429688 105.351562 L 216.429688 112.589844 L 223.6875 112.589844 Z M 237.390625 123.035156 L 230.132812 123.035156 L 230.132812 130.269531 L 237.390625 130.269531 Z M 225.710938 86.183594 L 220.574219 86.183594 L 220.574219 91.304688 L 225.710938 91.304688 Z M 215.167969 92.792969 L 209.21875 92.792969 L 209.21875 98.726562 L 215.167969 98.726562 Z M 233.183594 112.554688 L 228.046875 112.554688 L 228.046875 117.675781 L 233.183594 117.675781 Z M 209.089844 107.035156 L 205.179688 107.035156 L 205.179688 110.9375 L 209.089844 110.9375 Z M 226.15625 123.90625 L 216.378906 123.90625 L 216.378906 133.65625 L 226.15625 133.65625 Z M 197.226562 126.203125 L 197.226562 130.929688 L 201.765625 130.929688 L 201.765625 126.203125 Z M 205.941406 141.441406 L 198.484375 141.441406 L 198.484375 148.878906 L 205.941406 148.878906 Z M 220.457031 140.136719 L 213 140.136719 L 213 147.574219 L 220.457031 147.574219 Z M 208.90625 132.535156 L 204.183594 132.535156 L 204.183594 137.261719 L 208.90625 137.261719 Z M 211.441406 117.960938 L 206.703125 117.960938 L 206.703125 122.683594 L 211.441406 122.683594 Z M 211.441406 117.960938 " fill-opacity="1" fill-rule="evenodd"/></g><g fill="#29282e" fill-opacity="1"><g transform="translate(91.756881, 256.51182)"><g><path d="M 1.171875 -26.625 L 9.359375 -26.625 C 10.660156 -26.625 11.664062 -26.328125 12.375 -25.734375 C 13.09375 -25.148438 13.578125 -24.328125 13.828125 -23.265625 C 14.078125 -22.203125 14.203125 -20.84375 14.203125 -19.1875 C 14.203125 -17.675781 14.003906 -16.5 13.609375 -15.65625 C 13.210938 -14.8125 12.53125 -14.222656 11.5625 -13.890625 C 12.363281 -13.722656 12.945312 -13.316406 13.3125 -12.671875 C 13.675781 -12.035156 13.859375 -11.171875 13.859375 -10.078125 L 13.796875 0 L 8.59375 0 L 8.59375 -10.421875 C 8.59375 -11.160156 8.445312 -11.632812 8.15625 -11.84375 C 7.863281 -12.050781 7.335938 -12.15625 6.578125 -12.15625 L 6.578125 0 L 1.171875 0 Z M 7.875 -16.765625 C 8.613281 -16.765625 8.984375 -17.570312 8.984375 -19.1875 C 8.984375 -19.894531 8.953125 -20.421875 8.890625 -20.765625 C 8.828125 -21.117188 8.710938 -21.363281 8.546875 -21.5 C 8.390625 -21.632812 8.15625 -21.703125 7.84375 -21.703125 L 6.609375 -21.703125 L 6.609375 -16.765625 Z M 7.875 -16.765625 "/></g></g></g><g fill="#29282e" fill-opacity="1"><g transform="translate(106.54204, 256.51182)"><g><path d="M 1.171875 0 L 1.171875 -26.625 L 11.84375 -26.625 L 11.84375 -21.484375 L 6.609375 -21.484375 L 6.609375 -16.3125 L 11.625 -16.3125 L 11.625 -11.28125 L 6.609375 -11.28125 L 6.609375 -5.171875 L 12.1875 -5.171875 L 12.1875 0 Z M 1.171875 0 "/></g></g></g><g fill="#29282e" fill-opacity="1"><g transform="translate(119.312456, 256.51182)"><g><path d="M 1.171875 -26.625 L 8.53125 -26.625 C 10.425781 -26.625 11.847656 -26.097656 12.796875 -25.046875 C 13.753906 -23.992188 14.242188 -22.429688 14.265625 -20.359375 L 14.328125 -7.90625 C 14.347656 -5.28125 13.890625 -3.304688 12.953125 -1.984375 C 12.023438 -0.660156 10.488281 0 8.34375 0 L 1.171875 0 Z M 7.46875 -4.71875 C 8.4375 -4.71875 8.921875 -5.191406 8.921875 -6.140625 L 8.921875 -19.875 C 8.921875 -20.46875 8.875 -20.914062 8.78125 -21.21875 C 8.695312 -21.519531 8.53125 -21.722656 8.28125 -21.828125 C 8.03125 -21.929688 7.644531 -21.984375 7.125 -21.984375 L 6.546875 -21.984375 L 6.546875 -4.71875 Z M 7.46875 -4.71875 "/></g></g></g><g fill="#29282e" fill-opacity="1"><g transform="translate(134.593557, 256.51182)"><g><path d="M 1.171875 0 L 1.171875 -26.625 L 11.84375 -26.625 L 11.84375 -21.484375 L 6.609375 -21.484375 L 6.609375 -16.3125 L 11.625 -16.3125 L 11.625 -11.28125 L 6.609375 -11.28125 L 6.609375 -5.171875 L 12.1875 -5.171875 L 12.1875 0 Z M 1.171875 0 "/></g></g></g><g fill="#29282e" fill-opacity="1"><g transform="translate(147.363972, 256.51182)"><g><path d="M 1.171875 0 L 1.171875 -26.625 L 11.84375 -26.625 L 11.84375 -21.484375 L 6.609375 -21.484375 L 6.609375 -16.3125 L 11.625 -16.3125 L 11.625 -11.28125 L 6.609375 -11.28125 L 6.609375 -5.171875 L 12.1875 -5.171875 L 12.1875 0 Z M 1.171875 0 "/></g></g></g><g fill="#29282e" fill-opacity="1"><g transform="translate(160.134388, 256.51182)"><g><path d="M 1.171875 0 L 1.171875 -26.625 L 9.296875 -26.625 L 11.53125 -10.390625 L 13.765625 -26.625 L 21.953125 -26.625 L 21.953125 0 L 17.078125 0 L 17.078125 -19.1875 L 14.015625 0 L 9.234375 0 L 5.984375 -19.1875 L 5.984375 0 Z M 1.171875 0 "/></g></g></g><g fill="#29282e" fill-opacity="1"><g transform="translate(183.257506, 256.51182)"><g><path d="M 0.9375 0 L 0.9375 -26.625 L 6.078125 -26.625 L 6.078125 0 Z M 0.9375 0 "/></g></g></g><g fill="#29282e" fill-opacity="1"><g transform="translate(190.293631, 256.51182)"><g><path d="M 1.171875 0 L 1.171875 -26.625 L 6.671875 -26.625 L 9.109375 -13.890625 L 9.109375 -26.625 L 14.265625 -26.625 L 14.265625 0 L 9.046875 0 L 6.390625 -13.328125 L 6.390625 0 Z M 1.171875 0 "/></g></g></g><g fill="#29282e" fill-opacity="1"><g transform="translate(205.729707, 256.51182)"><g><path d="M 6.671875 0.25 C 4.742188 0.25 3.3125 -0.425781 2.375 -1.78125 C 1.4375 -3.132812 0.96875 -5.1875 0.96875 -7.9375 L 0.96875 -19.40625 C 0.96875 -21.863281 1.515625 -23.722656 2.609375 -24.984375 C 3.703125 -26.242188 5.332031 -26.875 7.5 -26.875 C 9.257812 -26.875 10.625 -26.519531 11.59375 -25.8125 C 12.5625 -25.113281 13.234375 -24.09375 13.609375 -22.75 C 13.984375 -21.40625 14.171875 -19.679688 14.171875 -17.578125 L 8.953125 -17.578125 L 8.953125 -19.96875 C 8.953125 -20.601562 8.863281 -21.097656 8.6875 -21.453125 C 8.519531 -21.804688 8.207031 -21.984375 7.75 -21.984375 C 6.738281 -21.984375 6.234375 -21.320312 6.234375 -20 L 6.234375 -7.09375 C 6.234375 -6.289062 6.332031 -5.679688 6.53125 -5.265625 C 6.738281 -4.859375 7.101562 -4.65625 7.625 -4.65625 C 8.144531 -4.65625 8.503906 -4.859375 8.703125 -5.265625 C 8.910156 -5.679688 9.015625 -6.289062 9.015625 -7.09375 L 9.015625 -10.90625 L 7.59375 -10.90625 L 7.59375 -15.5 L 14.109375 -15.5 L 14.109375 0 L 11.96875 0 L 11.0625 -2.234375 C 10.113281 -0.578125 8.648438 0.25 6.671875 0.25 Z M 6.671875 0.25 "/></g></g></g><g fill="#29282e" fill-opacity="1"><g transform="translate(220.762836, 256.51182)"><g/></g></g><g fill="#29282e" fill-opacity="1"><g transform="translate(228.015929, 256.51182)"><g><path d="M 3.46875 0 L 3.46875 -21.515625 L 0.3125 -21.515625 L 0.3125 -26.625 L 11.96875 -26.625 L 11.96875 -21.515625 L 8.796875 -21.515625 L 8.796875 0 Z M 3.46875 0 "/></g></g></g><g fill="#29282e" fill-opacity="1"><g transform="translate(240.290404, 256.51182)"><g><path d="M 0.9375 0 L 0.9375 -26.625 L 6.078125 -26.625 L 6.078125 0 Z M 0.9375 0 "/></g></g></g><g fill="#29282e" fill-opacity="1"><g transform="translate(247.326528, 256.51182)"><g><path d="M 1.171875 0 L 1.171875 -26.625 L 9.296875 -26.625 L 11.53125 -10.390625 L 13.765625 -26.625 L 21.953125 -26.625 L 21.953125 0 L 17.078125 0 L 17.078125 -19.1875 L 14.015625 0 L 9.234375 0 L 5.984375 -19.1875 L 5.984375 0 Z M 1.171875 0 "/></g></g></g><g fill="#29282e" fill-opacity="1"><g transform="translate(270.449646, 256.51182)"><g><path d="M 1.171875 0 L 1.171875 -26.625 L 11.84375 -26.625 L 11.84375 -21.484375 L 6.609375 -21.484375 L 6.609375 -16.3125 L 11.625 -16.3125 L 11.625 -11.28125 L 6.609375 -11.28125 L 6.609375 -5.171875 L 12.1875 -5.171875 L 12.1875 0 Z M 1.171875 0 "/></g></g></g><g fill="#29282e" fill-opacity="1"><g transform="translate(144.929534, 284.811836)"><g><path d="M 13.328125 -9.0625 L 9.09375 0 L 7.78125 0 L 6.953125 -7.296875 L 3.5 0 L 2.171875 0.015625 L 1.234375 -9.0625 L 2.515625 -9.0625 L 3.140625 -1.40625 L 6.65625 -9.0625 L 8 -9.0625 L 8.71875 -1.4375 L 12.046875 -9.0625 Z M 13.328125 -9.0625 "/></g></g></g><g fill="#29282e" fill-opacity="1"><g transform="translate(161.513641, 284.811836)"><g><path d="M 6.0625 -2.015625 L 2.09375 -2.015625 L 1.015625 0 L -0.234375 0 L 4.625 -9.015625 L 6 -9.015625 L 7.671875 0 L 6.421875 0 Z M 5.890625 -2.9375 L 5.0625 -7.5625 L 2.59375 -2.9375 Z M 5.890625 -2.9375 "/></g></g></g><g fill="#29282e" fill-opacity="1"><g transform="translate(174.172951, 284.811836)"><g><path d="M 7.515625 -9.0625 L 7.34375 -8.140625 L 4.875 -8.140625 L 3.4375 0 L 2.265625 0 L 3.6875 -8.140625 L 1.21875 -8.140625 L 1.390625 -9.0625 Z M 7.515625 -9.0625 "/></g></g></g><g fill="#29282e" fill-opacity="1"><g transform="translate(185.103792, 284.811836)"><g><path d="M 0.703125 -4.53125 C 0.859375 -5.414062 1.195312 -6.210938 1.71875 -6.921875 C 2.25 -7.628906 2.890625 -8.179688 3.640625 -8.578125 C 4.398438 -8.972656 5.195312 -9.171875 6.03125 -9.171875 C 7.019531 -9.171875 7.84375 -8.929688 8.5 -8.453125 C 9.15625 -7.984375 9.578125 -7.3125 9.765625 -6.4375 L 8.34375 -6.4375 C 8.1875 -6.96875 7.894531 -7.375 7.46875 -7.65625 C 7.050781 -7.945312 6.507812 -8.09375 5.84375 -8.09375 C 5.21875 -8.09375 4.628906 -7.945312 4.078125 -7.65625 C 3.523438 -7.375 3.054688 -6.960938 2.671875 -6.421875 C 2.296875 -5.878906 2.039062 -5.25 1.90625 -4.53125 C 1.863281 -4.3125 1.84375 -4.050781 1.84375 -3.75 C 1.84375 -2.90625 2.09375 -2.234375 2.59375 -1.734375 C 3.09375 -1.234375 3.757812 -0.984375 4.59375 -0.984375 C 5.25 -0.984375 5.835938 -1.125 6.359375 -1.40625 C 6.890625 -1.695312 7.328125 -2.109375 7.671875 -2.640625 L 9.09375 -2.640625 C 8.59375 -1.773438 7.929688 -1.101562 7.109375 -0.625 C 6.296875 -0.15625 5.394531 0.078125 4.40625 0.078125 C 3.664062 0.078125 3.007812 -0.0703125 2.4375 -0.375 C 1.875 -0.6875 1.429688 -1.117188 1.109375 -1.671875 C 0.785156 -2.234375 0.625 -2.878906 0.625 -3.609375 C 0.625 -3.910156 0.648438 -4.21875 0.703125 -4.53125 Z M 0.703125 -4.53125 "/></g></g></g><g fill="#29282e" fill-opacity="1"><g transform="translate(199.036704, 284.811836)"><g><path d="M 8.921875 -9.0625 L 7.3125 0 L 6.140625 0 L 6.859375 -4.140625 L 2.265625 -4.140625 L 1.515625 0 L 0.34375 0 L 1.953125 -9.0625 L 3.140625 -9.0625 L 2.421875 -5.0625 L 7.03125 -5.0625 L 7.734375 -9.0625 Z M 8.921875 -9.0625 "/></g></g></g><g fill="#29282e" fill-opacity="1"><g transform="translate(211.916943, 284.811836)"><g><path d="M 2.96875 -8.140625 L 2.421875 -5.03125 L 5.703125 -5.03125 L 5.546875 -4.125 L 2.265625 -4.125 L 1.6875 -0.9375 L 5.375 -0.9375 L 5.21875 0 L 0.34375 0 L 1.953125 -9.078125 L 6.8125 -9.078125 L 6.640625 -8.140625 Z M 2.96875 -8.140625 "/></g></g></g><g fill="#29282e" fill-opacity="1"><g transform="translate(222.483896, 284.811836)"><g><path d="M 3.4375 0.09375 C 2.59375 0.09375 1.90625 -0.109375 1.375 -0.515625 C 0.851562 -0.921875 0.59375 -1.457031 0.59375 -2.125 C 0.59375 -2.257812 0.597656 -2.359375 0.609375 -2.421875 L 1.78125 -2.421875 C 1.75 -1.992188 1.875 -1.628906 2.15625 -1.328125 C 2.445312 -1.023438 2.890625 -0.875 3.484375 -0.875 C 4.078125 -0.875 4.546875 -1.003906 4.890625 -1.265625 C 5.234375 -1.535156 5.40625 -1.914062 5.40625 -2.40625 C 5.40625 -2.695312 5.320312 -2.941406 5.15625 -3.140625 C 4.988281 -3.347656 4.78125 -3.519531 4.53125 -3.65625 C 4.28125 -3.789062 3.941406 -3.941406 3.515625 -4.109375 C 3.003906 -4.316406 2.585938 -4.507812 2.265625 -4.6875 C 1.953125 -4.875 1.6875 -5.125 1.46875 -5.4375 C 1.25 -5.75 1.148438 -6.140625 1.171875 -6.609375 C 1.171875 -7.117188 1.300781 -7.566406 1.5625 -7.953125 C 1.832031 -8.347656 2.203125 -8.648438 2.671875 -8.859375 C 3.148438 -9.066406 3.691406 -9.171875 4.296875 -9.171875 C 4.890625 -9.171875 5.398438 -9.070312 5.828125 -8.875 C 6.253906 -8.675781 6.578125 -8.398438 6.796875 -8.046875 C 7.015625 -7.691406 7.109375 -7.289062 7.078125 -6.84375 L 5.84375 -6.84375 C 5.863281 -7.070312 5.816406 -7.289062 5.703125 -7.5 C 5.585938 -7.707031 5.40625 -7.875 5.15625 -8 C 4.90625 -8.132812 4.597656 -8.203125 4.234375 -8.203125 C 3.671875 -8.203125 3.21875 -8.066406 2.875 -7.796875 C 2.53125 -7.535156 2.359375 -7.175781 2.359375 -6.71875 C 2.359375 -6.445312 2.4375 -6.210938 2.59375 -6.015625 C 2.757812 -5.828125 2.960938 -5.664062 3.203125 -5.53125 C 3.453125 -5.394531 3.789062 -5.238281 4.21875 -5.0625 C 4.726562 -4.84375 5.144531 -4.640625 5.46875 -4.453125 C 5.789062 -4.265625 6.0625 -4.015625 6.28125 -3.703125 C 6.507812 -3.390625 6.625 -3 6.625 -2.53125 C 6.625 -2.03125 6.492188 -1.582031 6.234375 -1.1875 C 5.972656 -0.789062 5.597656 -0.476562 5.109375 -0.25 C 4.628906 -0.0195312 4.070312 0.09375 3.4375 0.09375 Z M 3.4375 0.09375 "/></g></g></g></svg>